<svg xmlns="http://www.w3.org/2000/svg" xmlns:xlink="http://www.w3.org/1999/xlink" viewBox="0,0,256,256" width="50px" height="50px"><g fill="#5c7cfa" fill-rule="nonzero" stroke="none" stroke-width="1" stroke-linecap="butt" stroke-linejoin="miter" stroke-miterlimit="10" stroke-dasharray="" stroke-dashoffset="0" font-family="none" font-weight="none" font-size="none" text-anchor="none" style="mix-blend-mode: normal"><g transform="scale(5.12,5.12)"><path d="M14,4c-5.514,0 -10,4.486 -10,10v22c0,5.514 4.486,10 10,10h22c5.514,0 10,-4.486 10,-10v-22c0,-5.514 -4.486,-10 -10,-10zM25,8.5c0.35663,0 0.71348,0.18514 0.89648,0.55664l4.80273,9.73242l10.74219,1.5625c0.82,0.119 1.14869,1.12608 0.55469,1.70508l-7.77344,7.57813l1.83398,10.69531c0.14,0.817 -0.71717,1.44069 -1.45117,1.05469l-9.60547,-5.05078l-9.60742,5.05078c-0.734,0.386 -1.59117,-0.23769 -1.45117,-1.05469l1.83594,-10.69531l-7.77344,-7.57812c-0.594,-0.579 -0.26727,-1.58608 0.55273,-1.70508l10.74414,-1.5625l4.80273,-9.73242c0.1835,-0.3715 0.53986,-0.55664 0.89648,-0.55664zM25,11.75977l-4.36914,8.85352l4.36914,7.38672zM25,28l14.10352,-5.91797l0.04492,-0.04297l-9.72461,-1.41211zM25,28l-8.7168,10.65625l8.7168,-4.58203l0.00391,0.00195l-0.00391,-6.06836l8.69531,10.63867l0.04883,0.02539l-1.66992,-9.73242zM25,28l-14.11523,-5.9668l-0.0332,0.00586l7.0625,6.88477z"></path></g></g></svg>